<?xml version="1.0" encoding="utf-8"?>
<!-- Svg Vector Icons : http://www.onlinewebfonts.com/icon -->
<!DOCTYPE svg PUBLIC "-//W3C//DTD SVG 1.1//EN" "http://www.w3.org/Graphics/SVG/1.1/DTD/svg11.dtd">
<svg version="1.1" xmlns="http://www.w3.org/2000/svg" xmlns:xlink="http://www.w3.org/1999/xlink" x="0px" y="0px" viewBox="0 0 256 256" enable-background="new 0 0 256 256" xml:space="preserve">
<metadata> Svg Vector Icons : http://www.onlinewebfonts.com/icon </metadata>
<g><g><path fill="#000000" d="M130.4,203.2c0,0,0,0,0.1,0c2,0,27.5-0.7,34.7-34c0.5-2.3-1-4.7-3.3-5.2c-2.4-0.5-4.7,1-5.2,3.3c-5.9,27.2-25.3,27.2-26.2,27.2c-22.3,0-27-25.8-27.2-27c-0.4-2.4-2.6-4-5-3.6c-2.4,0.4-4,2.6-3.6,5C96.8,180.8,106.7,203.2,130.4,203.2z"/><path fill="#000000" d="M246,157.5c0-10.7-5.1-20.5-13.4-26.6c-1-20.2-7.8-39.3-19.5-55.4c-2.3-3.2-6.9-3.9-10.1-1.6c-3.2,2.4-3.9,6.9-1.6,10.1c10.7,14.7,16.7,32.4,16.9,51l0,4.2l3.6,2c5.9,3.3,9.5,9.5,9.5,16.3c0,10.2-8.2,18.6-18.5,18.7l-4.2,0l-2,3.6c-15.7,27.7-45,45.1-77.3,45.1c-32.8,0-62.4-17.9-77.9-46.1l-2.3-4.1l-4.7,0.4c-0.5,0-1,0-1.6,0c-10.3,0-18.7-8.4-18.7-18.7c0-7.7,4.7-14.6,11.8-17.4l4.4-1.7l0.2-4.7c1.8-47.6,41-85.3,88.7-85.3c3.3,0,6.6,0.2,9.9,0.5c4,0.4,7.5-2.4,8-6.4c0.4-4-2.4-7.5-6.4-8c-3.8-0.4-7.6-0.6-11.5-0.6c-54,0-98.6,41.6-102.9,94.9C16.5,133.6,10,144.4,10,156.5c0,17.6,13.8,32,31.2,33c18.5,30.6,51.7,49.9,88.4,49.9c36.3,0,69.3-18.9,87.9-49.1C233.6,188,246,174.2,246,157.5z"/><path fill="#000000" d="M148.2,64.8c-2.8-2.8-7.4-2.8-10.2,0c-2.8,2.8-2.8,7.4,0,10.2c13.4,13.3,35,13.1,48.3-0.3s13.1-35-0.3-48.3c-6.3-6.3-14.7-9.7-23.4-9.9c-4-0.1-7.3,3.1-7.3,7.1c-0.1,4,3.1,7.3,7.1,7.3c5,0.1,9.8,2.1,13.5,5.7c7.7,7.6,7.8,20.1,0.1,27.9C168.4,72.4,155.9,72.4,148.2,64.8z"/><path fill="#000000" d="M186.1,132.3c0-4-1.7-7.7-4.3-10.3c-2.6-2.6-6.2-4.1-10.1-4.1c-8,0-14.5,6.5-14.5,14.4c0,8,6.5,14.5,14.5,14.5C179.7,146.7,186.1,140.2,186.1,132.3z"/><path fill="#000000" d="M95.7,121.9c-2.6-2.6-6.2-4.1-10.1-4.1c-8,0-14.4,6.5-14.4,14.4c0,8,6.5,14.4,14.4,14.4c8,0,14.4-6.5,14.4-14.4C100,128.2,98.4,124.5,95.7,121.9z"/></g></g>
</svg>